<svg xmlns="http://www.w3.org/2000/svg" xmlns:xlink="http://www.w3.org/1999/xlink" width="500" zoomAndPan="magnify" viewBox="0 0 375 374.999991" height="500" preserveAspectRatio="xMidYMid meet" version="1.0"><defs><g/><clipPath id="f98377e06c"><path d="M 122.574219 81.492188 L 252.324219 81.492188 L 252.324219 187.195312 L 122.574219 187.195312 Z M 122.574219 81.492188 " clip-rule="nonzero"/></clipPath></defs><g fill="#001d30" fill-opacity="1"><g transform="translate(119.645139, 236.337714)"><g><path d="M 11.953125 0.21875 C 8.265625 0.21875 5.445312 -0.960938 3.5 -3.328125 C 1.90625 -5.253906 1.109375 -7.632812 1.109375 -10.46875 L 1.109375 -10.609375 C 1.109375 -13.460938 1.90625 -15.851562 3.5 -17.78125 C 5.425781 -20.113281 8.242188 -21.28125 11.953125 -21.28125 C 14.742188 -21.28125 17.039062 -20.65625 18.84375 -19.40625 C 20.65625 -18.15625 21.738281 -16.484375 22.09375 -14.390625 L 17.109375 -14.390625 C 16.984375 -15.460938 16.460938 -16.273438 15.546875 -16.828125 C 14.628906 -17.390625 13.429688 -17.671875 11.953125 -17.671875 C 10.097656 -17.671875 8.628906 -17.003906 7.546875 -15.671875 C 6.460938 -14.335938 5.921875 -12.601562 5.921875 -10.46875 C 5.921875 -8.34375 6.46875 -6.628906 7.5625 -5.328125 C 8.664062 -4.035156 10.128906 -3.390625 11.953125 -3.390625 C 13.429688 -3.390625 14.628906 -3.664062 15.546875 -4.21875 C 16.460938 -4.78125 16.984375 -5.597656 17.109375 -6.671875 L 22.09375 -6.671875 C 21.738281 -4.609375 20.648438 -2.941406 18.828125 -1.671875 C 17.015625 -0.410156 14.722656 0.21875 11.953125 0.21875 Z M 11.953125 0.21875 "/></g></g></g><g fill="#001d30" fill-opacity="1"><g transform="translate(149.996517, 236.337714)"><g><path d="M 1.828125 0 L 1.828125 -20.890625 L 6.640625 -20.890625 L 6.640625 -11.890625 L 15.25 -11.890625 L 15.25 -20.890625 L 20.0625 -20.890625 L 20.0625 0 L 15.25 0 L 15.25 -8.171875 L 6.640625 -8.171875 L 6.640625 0 Z M 1.828125 0 "/></g></g></g><g fill="#001d30" fill-opacity="1"><g transform="translate(179.026742, 236.337714)"><g><path d="M 0.390625 0 L 7.421875 -20.890625 L 15.421875 -20.890625 L 22.421875 0 L 17.359375 0 L 15.890625 -4.390625 L 6.96875 -4.390625 L 5.46875 0 Z M 8.21875 -8.140625 L 14.609375 -8.140625 L 11.421875 -17.640625 Z M 8.21875 -8.140625 "/></g></g></g><g fill="#001d30" fill-opacity="1"><g transform="translate(208.985347, 236.337714)"><g><path d="M 1.828125 0 L 1.828125 -20.890625 L 11.28125 -20.890625 C 14.019531 -20.890625 16.125 -20.1875 17.59375 -18.78125 C 19.070312 -17.375 19.8125 -15.648438 19.8125 -13.609375 C 19.8125 -12.335938 19.46875 -11.101562 18.78125 -9.90625 C 18.09375 -8.707031 17.101562 -7.796875 15.8125 -7.171875 L 19.171875 0 L 13.859375 0 L 10.921875 -6.25 L 6.640625 -6.25 L 6.640625 0 Z M 6.640625 -9.890625 L 11.359375 -9.890625 C 12.421875 -9.890625 13.289062 -10.222656 13.96875 -10.890625 C 14.65625 -11.554688 15 -12.445312 15 -13.5625 C 15 -14.6875 14.65625 -15.582031 13.96875 -16.25 C 13.289062 -16.914062 12.421875 -17.25 11.359375 -17.25 L 6.640625 -17.25 Z M 6.640625 -9.890625 "/></g></g></g><g fill="#001d30" fill-opacity="1"><g transform="translate(236.730116, 236.337714)"><g><path d="M 6.890625 0 L 6.890625 -17.25 L 0.578125 -17.25 L 0.578125 -20.890625 L 18.03125 -20.890625 L 18.03125 -17.25 L 11.703125 -17.25 L 11.703125 0 Z M 6.890625 0 "/></g></g></g><g fill="#001d30" fill-opacity="1"><g transform="translate(109.918578, 285.837711)"><g><path d="M 7.640625 0 L 0.390625 -20.890625 L 5.46875 -20.890625 L 11.640625 -3.25 L 17.8125 -20.890625 L 22.890625 -20.890625 L 15.640625 0 Z M 7.640625 0 "/></g></g></g><g fill="#001d30" fill-opacity="1"><g transform="translate(140.341378, 285.837711)"><g><path d="M 1.859375 0 L 1.859375 -20.890625 L 6.671875 -20.890625 L 6.671875 0 Z M 1.859375 0 "/></g></g></g><g fill="#001d30" fill-opacity="1"><g transform="translate(156.017184, 285.837711)"><g><path d="M 1.828125 0 L 1.828125 -20.890625 L 17.203125 -20.890625 L 17.203125 -17.25 L 6.640625 -17.25 L 6.640625 -12.140625 L 14.859375 -12.140625 L 14.859375 -8.5 L 6.640625 -8.5 L 6.640625 -3.640625 L 17.203125 -3.640625 L 17.203125 0 Z M 1.828125 0 "/></g></g></g><g fill="#001d30" fill-opacity="1"><g transform="translate(181.655244, 285.837711)"><g><path d="M 4.671875 0 L 0.390625 -20.890625 L 5.46875 -20.890625 L 8.53125 -4 L 12.703125 -20.890625 L 17.3125 -20.890625 L 21.5 -4 L 24.5625 -20.890625 L 29.640625 -20.890625 L 25.34375 0 L 18.140625 0 L 15.03125 -12.28125 L 11.890625 0 Z M 4.671875 0 "/></g></g></g><g fill="#001d30" fill-opacity="1"><g transform="translate(218.826659, 285.837711)"><g><path d="M 1.828125 0 L 1.828125 -20.890625 L 17.203125 -20.890625 L 17.203125 -17.25 L 6.640625 -17.25 L 6.640625 -12.140625 L 14.859375 -12.140625 L 14.859375 -8.5 L 6.640625 -8.5 L 6.640625 -3.640625 L 17.203125 -3.640625 L 17.203125 0 Z M 1.828125 0 "/></g></g></g><g fill="#001d30" fill-opacity="1"><g transform="translate(244.464719, 285.837711)"><g><path d="M 1.828125 0 L 1.828125 -20.890625 L 11.28125 -20.890625 C 14.019531 -20.890625 16.125 -20.1875 17.59375 -18.78125 C 19.070312 -17.375 19.8125 -15.648438 19.8125 -13.609375 C 19.8125 -12.335938 19.46875 -11.101562 18.78125 -9.90625 C 18.09375 -8.707031 17.101562 -7.796875 15.8125 -7.171875 L 19.171875 0 L 13.859375 0 L 10.921875 -6.25 L 6.640625 -6.25 L 6.640625 0 Z M 6.640625 -9.890625 L 11.359375 -9.890625 C 12.421875 -9.890625 13.289062 -10.222656 13.96875 -10.890625 C 14.65625 -11.554688 15 -12.445312 15 -13.5625 C 15 -14.6875 14.65625 -15.582031 13.96875 -16.25 C 13.289062 -16.914062 12.421875 -17.25 11.359375 -17.25 L 6.640625 -17.25 Z M 6.640625 -9.890625 "/></g></g></g><g clip-path="url(#f98377e06c)"><path fill="#01ae9a" d="M 193.699219 82.8125 C 198.835938 89.804688 202.886719 97.570312 205.59375 105.90625 C 208.226562 113.980469 209.644531 122.519531 209.644531 131.445312 C 209.644531 140.296875 208.226562 148.886719 205.59375 156.9375 C 203.554688 163.15625 200.769531 169.113281 197.363281 174.609375 C 199.636719 173.886719 201.855469 173.0625 204.046875 172.109375 L 204.097656 172.109375 C 205.285156 171.566406 206.421875 171.023438 207.605469 170.429688 L 207.710938 170.378906 L 207.761719 170.378906 L 207.8125 170.328125 L 207.941406 170.277344 L 208.046875 170.171875 L 208.097656 170.171875 L 208.199219 170.121094 L 208.304688 170.070312 L 208.433594 170.019531 L 208.484375 169.964844 L 208.535156 169.914062 L 208.640625 169.863281 L 208.691406 169.863281 L 208.792969 169.8125 L 208.898438 169.707031 L 209.027344 169.65625 C 211.527344 168.339844 213.980469 166.792969 216.351562 165.167969 C 220.429688 162.226562 224.300781 158.792969 227.757812 154.847656 C 232.609375 149.351562 236.425781 143.316406 239.210938 136.863281 C 241.613281 131.265625 243.210938 125.460938 244.0625 119.5 C 232.789062 122.546875 222.519531 128.351562 214.210938 136.582031 C 214.316406 134.851562 214.339844 133.070312 214.339844 131.34375 C 214.339844 130.851562 214.339844 130.335938 214.339844 129.847656 C 223.527344 121.953125 234.566406 116.484375 246.359375 113.902344 C 247.675781 113.59375 248.992188 114.445312 249.273438 115.761719 C 249.378906 116.070312 249.378906 116.40625 249.324219 116.664062 C 248.605469 124.25 246.695312 131.703125 243.648438 138.800781 C 240.578125 145.714844 236.476562 152.214844 231.316406 158.125 C 226.078125 164.03125 220.144531 168.855469 213.695312 172.625 C 209.335938 175.179688 204.796875 177.214844 200.097656 178.789062 C 199.636719 178.96875 199.246094 179.097656 198.835938 179.253906 C 201.414062 180.261719 204.097656 181.035156 206.832031 181.523438 C 211.605469 182.425781 216.507812 182.609375 221.566406 181.988281 C 226.570312 181.34375 231.292969 179.949219 235.652344 177.859375 C 239.109375 176.234375 242.28125 174.171875 245.25 171.824219 C 241.894531 170.277344 238.386719 169.140625 234.75 168.417969 C 232.660156 167.953125 230.570312 167.695312 228.375 167.59375 C 229.976562 166.148438 231.523438 164.675781 232.96875 163.128906 C 233.871094 163.257812 234.773438 163.414062 235.703125 163.59375 C 240.964844 164.652344 246.050781 166.535156 250.746094 169.089844 C 251.933594 169.761719 252.34375 171.230469 251.699219 172.417969 C 251.570312 172.699219 251.390625 172.90625 251.15625 173.089844 C 247.210938 176.804688 242.695312 179.898438 237.765625 182.273438 C 232.941406 184.542969 227.730469 186.144531 222.183594 186.867188 C 216.636719 187.535156 211.195312 187.355469 205.957031 186.375 C 199.015625 185.007812 198.679688 183.511719 191.738281 183.511719 L 135.855469 183.511719 C 134.488281 183.511719 133.40625 182.425781 133.40625 181.058594 L 133.40625 165.011719 L 126.464844 169.089844 C 125.332031 169.734375 123.910156 169.371094 123.292969 168.261719 C 122.648438 167.179688 123.007812 165.761719 124.117188 165.117188 L 162.507812 142.539062 C 163.644531 141.894531 165.0625 142.257812 165.683594 143.367188 C 165.914062 143.726562 165.992188 144.140625 165.992188 144.5 L 165.992188 154.226562 L 196.796875 128.429688 C 197.804688 127.601562 199.246094 127.757812 200.074219 128.710938 C 200.898438 129.71875 200.746094 131.164062 199.765625 131.988281 L 194.164062 136.660156 L 194.164062 170.457031 C 196.925781 165.734375 199.246094 160.679688 200.976562 155.414062 C 203.425781 147.828125 204.796875 139.78125 204.796875 131.421875 C 204.796875 123.011719 203.425781 114.984375 200.976562 107.375 C 198.757812 100.640625 195.609375 94.242188 191.714844 88.4375 C 190.863281 89.703125 190.039062 91.019531 189.261719 92.386719 L 183.664062 92.386719 C 185.472656 89.03125 187.535156 85.804688 189.753906 82.761719 C 190.578125 81.679688 192.074219 81.445312 193.160156 82.21875 C 193.367188 82.402344 193.546875 82.582031 193.699219 82.8125 Z M 138.308594 162.121094 L 138.308594 178.609375 L 152.035156 178.609375 L 152.035156 154.023438 Z M 156.9375 151.183594 L 156.9375 178.636719 L 170.660156 178.636719 L 170.660156 156.371094 L 165.242188 160.859375 C 164.832031 161.273438 164.289062 161.503906 163.644531 161.503906 C 162.378906 161.503906 161.320312 160.496094 161.320312 159.234375 L 161.320312 148.550781 Z M 175.511719 152.265625 L 175.511719 178.609375 L 189.289062 178.609375 L 189.289062 140.734375 Z M 133.40625 154.253906 L 133.40625 131.910156 C 133.40625 130.542969 134.488281 129.460938 135.855469 129.460938 L 152.035156 129.460938 L 152.035156 112.433594 C 152.035156 111.066406 153.117188 109.980469 154.484375 109.980469 L 170.660156 109.980469 L 170.660156 99.429688 C 170.660156 98.0625 171.746094 96.976562 173.113281 96.976562 L 191.6875 96.976562 C 193.054688 96.976562 194.140625 98.0625 194.140625 99.429688 L 194.140625 125.410156 C 193.183594 125.640625 192.28125 126.082031 191.507812 126.777344 L 189.289062 128.632812 L 189.289062 101.828125 L 175.511719 101.828125 L 175.511719 140.167969 L 170.660156 144.242188 L 170.660156 114.832031 L 156.9375 114.832031 L 156.9375 140.449219 L 152.035156 143.316406 L 152.035156 134.363281 L 138.308594 134.363281 L 138.308594 151.390625 Z M 133.40625 154.253906 " fill-opacity="1" fill-rule="nonzero"/></g></svg>