<?xml version="1.0" encoding="UTF-8"?>
<svg width="512" height="512" viewBox="0 0 512 512" xmlns="http://www.w3.org/2000/svg">
  <!-- Background -->
  <rect width="512" height="512" rx="100" fill="#2563eb"/>
  
  <!-- Document/Chart representation -->
  <g transform="translate(100, 80)">
    <!-- Main document -->
    <rect x="0" y="0" width="312" height="380" rx="20" fill="white" opacity="0.95"/>
    
    <!-- Header lines (representing chart title) -->
    <rect x="30" y="40" width="150" height="12" rx="6" fill="#1e40af"/>
    <rect x="30" y="65" width="100" height="8" rx="4" fill="#60a5fa"/>
    
    <!-- Chart grid lines -->
    <line x1="30" y1="120" x2="282" y2="120" stroke="#cbd5e1" stroke-width="2"/>
    <line x1="30" y1="160" x2="282" y2="160" stroke="#cbd5e1" stroke-width="2"/>
    <line x1="30" y1="200" x2="282" y2="200" stroke="#cbd5e1" stroke-width="2"/>
    <line x1="30" y1="240" x2="282" y2="240" stroke="#cbd5e1" stroke-width="2"/>
    <line x1="30" y1="280" x2="282" y2="280" stroke="#cbd5e1" stroke-width="2"/>
    
    <!-- Vertical grid lines -->
    <line x1="80" y1="100" x2="80" y2="300" stroke="#e2e8f0" stroke-width="2"/>
    <line x1="130" y1="100" x2="130" y2="300" stroke="#e2e8f0" stroke-width="2"/>
    <line x1="180" y1="100" x2="180" y2="300" stroke="#e2e8f0" stroke-width="2"/>
    <line x1="230" y1="100" x2="230" y2="300" stroke="#e2e8f0" stroke-width="2"/>
    
    <!-- Chart curve/path (representing flight path) -->
    <path d="M 40 260 Q 100 180, 150 220 T 270 160" 
          stroke="#2563eb" 
          stroke-width="6" 
          fill="none" 
          stroke-linecap="round"/>
    
    <!-- Waypoint markers -->
    <circle cx="40" cy="260" r="8" fill="#ef4444"/>
    <circle cx="150" cy="220" r="8" fill="#f59e0b"/>
    <circle cx="270" cy="160" r="8" fill="#10b981"/>
    
    <!-- Airport runway icon -->
    <g transform="translate(200, 320)">
      <rect x="-30" y="-3" width="60" height="6" rx="3" fill="#1e40af"/>
      <rect x="-3" y="-15" width="6" height="30" rx="3" fill="#1e40af"/>
    </g>
  </g>
  
  <!-- Corner accent (aviation theme) -->
  <path d="M 430 100 L 450 80 L 470 100 L 450 90 Z" fill="white" opacity="0.8"/>
</svg>
